<svg xmlns="http://www.w3.org/2000/svg" xmlns:xlink="http://www.w3.org/1999/xlink" width="324.99" height="53" viewBox="0 0 324.99 53"><defs><style>.cls-1{isolation:isolate;}.cls-2{fill:url(#linear-gradient);}.cls-3,.cls-4,.cls-5{fill-rule:evenodd;}.cls-3{opacity:0.7;fill:url(#linear-gradient-2);}.cls-4{opacity:0.3;mix-blend-mode:screen;fill:url(#GradientFill_2);}.cls-5{fill:#fff;}.cls-6{fill:#789fce;}.cls-7{fill:#20336c;}</style><linearGradient id="linear-gradient" x1="-15.39" y1="3.69" x2="37.8" y2="32.92" gradientUnits="userSpaceOnUse"><stop offset="0.24" stop-color="#94bde5"/><stop offset="0.29" stop-color="#89b0d9"/><stop offset="0.49" stop-color="#5a77a6"/><stop offset="0.67" stop-color="#384e80"/><stop offset="0.81" stop-color="#233569"/><stop offset="0.9" stop-color="#1b2c61"/></linearGradient><linearGradient id="linear-gradient-2" x1="-210.49" y1="3590.22" x2="-246.1" y2="3554.61" gradientTransform="translate(-201.8 3597.18) rotate(180)" gradientUnits="userSpaceOnUse"><stop offset="0.14" stop-color="#7da7d9"/><stop offset="0.26" stop-color="#78a1d3"/><stop offset="0.41" stop-color="#6b91c3"/><stop offset="0.59" stop-color="#5575a9"/><stop offset="0.77" stop-color="#375084"/><stop offset="0.93" stop-color="#1b2c61"/></linearGradient><linearGradient id="GradientFill_2" x1="26.5" y1="30.45" x2="26.5" y2="0.15" gradientUnits="userSpaceOnUse"><stop offset="0" stop-color="#659ad2"/><stop offset="1" stop-color="#badaf3"/></linearGradient></defs><title>logo-gospodarkamorskapl</title><g class="cls-1"><g id="Layer_1" data-name="Layer 1"><circle class="cls-2" cx="26.5" cy="26.71" r="26.29"/><path class="cls-3" d="M1.3,23.29c0-12.72,11.28-23,25.2-23s25.2,10.32,25.2,23c0,16.58-12.49,26.93-25,27S1.3,40.23,1.3,23.29Z"/><path class="cls-4" d="M26.5,30.24A251.23,251.23,0,0,1,.12,29,18,18,0,0,1,0,26.44,26.45,26.45,0,0,1,23.74.06C24.66.06,25.58,0,26.5,0s1.84.06,2.76.06A26.45,26.45,0,0,1,53,26.44,18,18,0,0,1,52.88,29,251.23,251.23,0,0,1,26.5,30.24Z"/><polygon class="cls-5" points="26.66 7.85 22.42 11.1 30.89 11.1 26.66 7.85"/><path class="cls-5" d="M36.1,43.49,35,37.3l-1.17-1.17h-.92L30.83,19.45h1L34,17.24H19.29l2.21,2.21h1.05L20.4,36.13h-.92L18.31,37.3l-1.1,6.19h8.28V38.28h2.33v5.21ZM27.45,31.78H25.86V28.89h1.59Zm0-6.38H25.86V22.45h1.59Z"/><path class="cls-5" d="M24.43,14.05a2.22,2.22,0,0,0,2.23,2.22,2.26,2.26,0,1,0-2.23-2.22Z"/><rect class="cls-6" x="297.54" y="30.53" width="3.33" height="3.55"/><path class="cls-6" d="M316.76,21.45a7.19,7.19,0,0,0-4.68-1.63h-.21a6.44,6.44,0,0,0-4.26,1.56V20.17h-3.26V39h3.26V33.22a6.4,6.4,0,0,0,4.26,1.56h.21a7.52,7.52,0,0,0,5-1.91,7.64,7.64,0,0,0,2.41-5.53A7.8,7.8,0,0,0,316.76,21.45Zm-4.89,10a4.19,4.19,0,0,1-.14-8.37h.14a4.19,4.19,0,0,1,0,8.37Z"/><rect class="cls-6" x="321.73" y="15.56" width="3.26" height="18.8"/><path class="cls-7" d="M226.6,19.82a4.77,4.77,0,0,0-4.11,2.41,5.29,5.29,0,0,0-4.82-2.41A4.23,4.23,0,0,0,214,21.66V20.1h-3.12V33.79h3V27.9c0-3.26.71-5,3.05-5s2.83,1.56,2.83,4.75v6.1H223V27.9c0-3.26.63-5,2.9-5s2.77,1.56,2.77,4.75v6.1h3.12V26C231.78,21.94,229.94,19.82,226.6,19.82Z"/><path class="cls-7" d="M240.93,19.67h-.07a7.15,7.15,0,0,0-7.09,7.24,7.57,7.57,0,0,0,2,5,6.83,6.83,0,0,0,5.18,2.2,6.71,6.71,0,0,0,5.18-2.2,6.81,6.81,0,0,0,2.06-5.11,7.27,7.27,0,0,0-7.24-7.17Zm0,11.28c-2.34,0-3.83-1.56-3.83-4a3.87,3.87,0,1,1,7.73-.14C244.83,29.39,243.27,31,240.93,31Z"/><path class="cls-7" d="M253.06,21.66V20.1h-3V33.79h3.2V26.84c0-2.55.56-3.76,3.33-4v-3A4.27,4.27,0,0,0,253.06,21.66Z"/><path class="cls-7" d="M263.14,25.56c-1.71-.71-2.63-.92-2.63-2a1.28,1.28,0,0,1,1.28-1.28c.78,0,1.27.5,1.27,1.42v.07h2.84a3.79,3.79,0,0,0-4-4,4.13,4.13,0,0,0-4.19,4.11,3.94,3.94,0,0,0,1.49,3.19,25.84,25.84,0,0,0,2.63,1.07c1,.49,1.49.92,1.49,1.84a1.54,1.54,0,0,1-1.63,1.49c-.93,0-1.64-.78-1.64-2.06v-.21h-2.9c.14,3.12,1.91,5,4.46,5a4.41,4.41,0,0,0,4.62-4.47C266.19,27.41,265.26,26.48,263.14,25.56Z"/><polygon class="cls-7" points="279.45 20.1 275.9 20.1 271.44 26.48 271.44 15.63 268.31 15.63 268.31 33.79 271.44 33.79 271.44 26.84 276.4 33.79 280.44 33.79 274.7 26.63 279.45 20.1"/><path class="cls-7" d="M291.08,20.1v1.63a4.76,4.76,0,0,0-4.25-2h-.07a6.6,6.6,0,0,0-5.11,2.12,7.25,7.25,0,0,0-2,5,7,7,0,0,0,7.17,7.16c2.13,0,3.54-.63,4.25-2v1.7h3.13V20.1ZM287,30.88h-.14a4,4,0,0,1-3.83-4,3.87,3.87,0,0,1,3.83-3.9h.07a4,4,0,0,1,3.83,4A4,4,0,0,1,287,30.88Z"/><path class="cls-6" d="M77.71,21.73a6.35,6.35,0,0,0-4.47-2H73A6.83,6.83,0,0,0,66,26.91a7.16,7.16,0,0,0,2.19,5A6.8,6.8,0,0,0,73,33.79h.28a6.24,6.24,0,0,0,4.47-2V32a4.19,4.19,0,0,1-4.33,4.54h-.14a3.76,3.76,0,0,1-3.33-2H66.79a6.47,6.47,0,0,0,6.45,4.68h.21c4.33,0,7.1-2.84,7.1-7.66V20.1H77.71Zm-4.4,9.15h-.07a4.12,4.12,0,0,1,0-8.23h.07a4.25,4.25,0,0,1,4.12,4.26A4.19,4.19,0,0,1,73.31,30.88Z"/><path class="cls-6" d="M89.7,19.67h-.14a7.23,7.23,0,0,0-5,12.28,6.56,6.56,0,0,0,5.11,2.2h.07A6.87,6.87,0,0,0,94.81,32a7.1,7.1,0,0,0,2-5.18,7.15,7.15,0,0,0-7.16-7.17ZM89.7,31a3.69,3.69,0,0,1-3.9-4,3.76,3.76,0,0,1,3.9-4,3.7,3.7,0,0,1,3.83,3.9C93.53,29.39,92,31,89.7,31Z"/><path class="cls-6" d="M104.1,25.56c-1.7-.71-2.63-.92-2.63-2a1.28,1.28,0,0,1,1.28-1.28c.85,0,1.28.5,1.28,1.42v.07h2.91c-.15-2.56-1.64-4-4-4a4.08,4.08,0,0,0-4.18,4.11,3.91,3.91,0,0,0,1.49,3.19,21.68,21.68,0,0,0,2.55,1.07c1.06.49,1.49.92,1.49,1.84a1.47,1.47,0,0,1-1.56,1.49c-1,0-1.7-.78-1.7-2.06v-.14H98.07c.14,3,1.91,4.9,4.54,4.9a4.45,4.45,0,0,0,4.61-4.47C107.22,27.41,106.23,26.56,104.1,25.56Z"/><path class="cls-6" d="M121.05,21.38a6.67,6.67,0,0,0-4.54-1.63h-.14a6.24,6.24,0,0,0-4.11,1.48V20.1h-3.13V38.19h3.13V32.66a6.54,6.54,0,0,0,4.11,1.49h.21a7,7,0,0,0,4.76-1.85,7.39,7.39,0,0,0-.29-10.92ZM116.37,31h-.07a3.92,3.92,0,0,1-3.9-4,3.83,3.83,0,0,1,3.76-4h.21a3.93,3.93,0,0,1,4,4A4,4,0,0,1,116.37,31Z"/><path class="cls-6" d="M132.19,19.67h-.07a7.21,7.21,0,0,0-5,2.13A7.3,7.3,0,0,0,125,26.91a7.53,7.53,0,0,0,2,5,6.81,6.81,0,0,0,5.18,2.2A6.9,6.9,0,0,0,137.37,32a7.4,7.4,0,0,0,2-5.18,7.26,7.26,0,0,0-2.27-5.18A6.94,6.94,0,0,0,132.19,19.67Zm0,11.28a3.72,3.72,0,0,1-3.9-4,3.9,3.9,0,1,1,7.8-.14C136.09,29.39,134.53,31,132.19,31Z"/><path class="cls-6" d="M152.12,21.16A6.84,6.84,0,0,0,148,19.75h-.14a6.76,6.76,0,0,0-4.76,1.84,7.25,7.25,0,0,0-2.34,5.32,7.41,7.41,0,0,0,2.56,5.6,6.68,6.68,0,0,0,4.54,1.64H148a6.7,6.7,0,0,0,4.11-1.49v1.13h3.12V15.63h-3.12ZM148.22,31H148a3.9,3.9,0,0,1-3.9-4,4,4,0,0,1,3.9-4h.07a3.94,3.94,0,0,1,3.9,4.11A3.81,3.81,0,0,1,148.22,31Z"/><path class="cls-6" d="M168.44,21.73a4.86,4.86,0,0,0-4.26-2h-.07A6.4,6.4,0,0,0,159,21.87a7.56,7.56,0,0,0-1.91,5,7,7,0,0,0,7.09,7.16c2.13,0,3.48-.63,4.26-2v1.7h3.12V20.1h-3.12Zm-4.19,9.15h-.07a4,4,0,0,1-3.9-4,3.89,3.89,0,0,1,3.9-3.9,4,4,0,0,1,.07,7.94Z"/><path class="cls-6" d="M177.23,21.66V20.1h-3V33.79h3.2V26.84c0-2.55.56-3.76,3.33-4v-3A4.17,4.17,0,0,0,177.23,21.66Z"/><polygon class="cls-6" points="193.19 20.1 189.57 20.1 185.11 26.48 185.11 15.63 182.06 15.63 182.06 33.79 185.11 33.79 185.11 26.84 190.14 33.79 194.19 33.79 188.44 26.63 193.19 20.1"/><path class="cls-6" d="M204.83,20.1v1.63a4.86,4.86,0,0,0-4.26-2h-.07a6.5,6.5,0,0,0-5.11,2.12,7.29,7.29,0,0,0-2,5,7,7,0,0,0,7.16,7.16c2.13,0,3.48-.63,4.26-2v1.7H208V20.1Zm-4.19,10.78h-.07a4,4,0,0,1-3.9-4,3.89,3.89,0,0,1,3.9-3.9h.07a4,4,0,0,1,0,7.94Z"/></g></g></svg>