<svg xmlns="http://www.w3.org/2000/svg" width="260" height="33.7" viewBox="0 0 260 33.7"><path fill="#fff" d="M229 21.1c0 4.7 1.8 6.7 4.5 6.7s4.4-2 4.4-6.7-1.8-6.9-4.4-6.9c-2.7 0-4.5 2.2-4.5 6.9m17.1-.1c0 7.6-5.5 12.1-12.6 12.1s-12.6-4.5-12.6-12.1 5.4-12.3 12.6-12.3c7.1 0 12.6 4.7 12.6 12.3zM208 14.3h-.5c-1.4 0-2.3-.8-2.3-2.4v-.4c0-1.5.9-2.4 2.3-2.4h.5V6.2c0-2.1 1.3-3.3 3.4-3.3h1.4c2 0 3.3 1.2 3.3 3.3V9h2.2c1.6 0 2.4.9 2.4 2.4v.4c0 1.5-.8 2.4-2.4 2.4h-2.2V25c0 2.1.6 2.7 2.4 2.8 1.4.1 2.2.5 2.2 2v.5c0 1.4-.7 2.2-2.2 2.6-.8.1-1.6.2-2.7.2-4.6 0-7.7-1.7-7.7-6.9V14.3zM205.3 25c0 5-3.3 8-10.6 8-2.6 0-4.5-.3-6-.9-1.8-.7-2.7-1.7-2.7-3.4v-.4c0-1.5.8-2.6 2.2-2.6 1.6 0 2.5 1.7 6.1 1.7 2.2 0 3.6-.5 3.6-1.7 0-1.3-.9-1.7-4.1-2.1-5-.6-7.8-2.4-7.8-7.3 0-5.2 4-7.7 9.9-7.7 2.4 0 4.2.2 5.6.7 1.8.6 2.6 1.6 2.6 3v.6c0 1.5-.9 2.4-2.1 2.4-1.6 0-2.8-1.4-5.8-1.4-2.3 0-3.1.6-3.1 1.7 0 1 1 1.5 4 1.8 5.6.9 8.2 2.6 8.2 7.6zm-32 3.3c1.2 0 2.3-.6 3.1-1.3v-4.2c-.8-.1-1.8-.2-2.7-.2-2.2 0-3.5.8-3.5 2.8.1 2.1 1.3 2.9 3.1 2.9zm6.7 4.4c-1.6 0-2.6-.9-3.1-2.3-1.7 1.8-3.9 2.6-6.8 2.6-4.2 0-7.6-2.4-7.6-7.1 0-4.9 3.8-7.3 9.3-7.3 1.8 0 3.2.1 4.5.4v-1.7c0-2-1.1-3-4-3-3.3 0-4.2 1.6-5.9 1.6-1.3 0-2.2-1-2.2-2.4v-.4c0-1.6.8-2.8 2.6-3.4 1.9-.7 4.3-1 7.1-1 7.1 0 10.5 2.3 10.5 8.2v12.5c0 2.3-1 3.4-3.1 3.4H180zm-19.1-18.9v15.6c0 2.2-1.3 3.4-3.3 3.4h-1.4c-1.9 0-3.3-1.2-3.3-3.4v-17c0-2.3 1.1-3.4 3.2-3.4h1.2c2.5 0 3.6 1.4 3.6 4.8zm.1-10c0 2.2-1.8 3.8-4.2 3.8-2.4 0-4.2-1.6-4.2-3.8 0-2.2 1.8-3.8 4.2-3.8 2.5 0 4.2 1.6 4.2 3.8zm-36 11.1c-1.3 0-2.5.4-3.6.7v13.8c0 2.2-1.4 3.4-3.3 3.4h-1.4c-1.9 0-3.3-1.2-3.3-3.4v-17c0-2.3 1.1-3.4 3.2-3.4h1.4c1.6 0 2.8.7 3.2 3 2.1-1.9 4.9-3.4 8.2-3.4 2.6 0 4.9.9 5.8 3.4 2.2-2 5.3-3.4 8.5-3.4 3.5 0 6.3 1.6 6.3 6.7v14c0 2.2-1.4 3.4-3.3 3.4h-1.4c-1.9 0-3.3-1.2-3.3-3.4V17.5c0-2-.8-2.6-2.7-2.6-1.3 0-2.6.4-3.6.7v13.8c0 2.2-1.4 3.4-3.3 3.4H131c-1.9 0-3.3-1.2-3.3-3.4V17.5c-.1-2-.8-2.6-2.7-2.6zM100.6 13.6c-1.9 0-3.5.9-3.9 4.8h7.4c-.1-3.6-1.3-4.8-3.5-4.8m7.9 9.1H96.7c.4 4 2.3 5 5.6 5 3.9 0 4.8-1.7 6.5-1.7 1.3 0 2.2.8 2.2 2.3v.4c0 1.5-.7 2.4-2.2 3.1-1.8.9-4.2 1.3-7.7 1.3-8.2 0-12.5-4.6-12.5-12 0-7.6 4.9-12.4 12-12.4 7.6 0 11.1 4.5 11.1 11 0 1.9-1.1 3-3.2 3zm-39.2 2.6l9.3-10.7h-7.9c-1.7 0-2.7-1.1-2.7-2.7v-.2c0-1.6.9-2.7 2.7-2.7H85c1.9 0 3.1 1 3.1 2.8v.3c0 1.7-.5 2.8-1.9 4.4l-9.4 10.7h8.4c1.7 0 2.7 1.1 2.7 2.6v.2c0 1.5-1 2.7-2.7 2.7H70.4c-1.9 0-3.1-1.1-3.1-2.9v-.2c.1-1.5.5-2.7 2-4.3zm-2.2-.3c0 5-3.3 8-10.6 8-2.6 0-4.5-.3-6-.9-1.8-.7-2.7-1.7-2.7-3.4v-.4c0-1.5.8-2.6 2.2-2.6 1.6 0 2.5 1.7 6.1 1.7 2.2 0 3.6-.5 3.6-1.7 0-1.3-.9-1.7-4.1-2.1-5-.6-7.8-2.4-7.8-7.3 0-5.2 4-7.7 9.9-7.7 2.4 0 4.2.2 5.6.7 1.8.6 2.6 1.6 2.6 3v.6c0 1.5-.9 2.4-2.1 2.4-1.6 0-2.8-1.4-5.8-1.4-2.3 0-3.1.6-3.1 1.7 0 1 1 1.5 4 1.8 5.6.9 8.2 2.6 8.2 7.6zm-32 3.3c1.2 0 2.3-.6 3.1-1.3v-4.2c-.8-.1-1.8-.2-2.7-.2-2.2 0-3.5.8-3.5 2.8 0 2.1 1.3 2.9 3.1 2.9zm6.7 4.4c-1.6 0-2.6-.9-3.1-2.3-1.7 1.9-3.9 2.6-6.8 2.6-4.2 0-7.6-2.4-7.6-7.1 0-4.9 3.8-7.3 9.3-7.3 1.8 0 3.2.1 4.5.4v-1.7c0-2-1.1-3-4-3-3.3 0-4.2 1.6-5.9 1.6-1.3 0-2.2-1-2.2-2.4v-.4c0-1.6.8-2.8 2.6-3.4 1.9-.7 4.3-1 7.1-1 7.1 0 10.5 2.3 10.5 8.2v12.5c0 2.3-1 3.4-3.1 3.4h-1.3zM12 14.9c-1.5 0-2.8.4-3.9.8v13.7c0 2.2-1.4 3.4-3.3 3.4H3.3c-1.9 0-3.3-1.2-3.3-3.4v-17C0 10.1 1.1 9 3.2 9h1.3c1.7 0 2.8.6 3.3 3 2.1-1.8 5.1-3.3 8.6-3.3 3.6 0 6.4 1.4 6.4 6.7v14c0 2.2-1.4 3.4-3.3 3.4h-1.4c-2 0-3.4-1.2-3.4-3.4V17.5c.1-2.1-.8-2.6-2.7-2.6zM250.7 25.9c.4-.4 1-.8 1.7-.8.8 0 1.6.4 1.6 2.3s-.9 2.2-1.8 2.2c-.7 0-1.1-.2-1.5-.6m-4.2-1.9c0-3.7 3-6.5 6.7-6.5 1 0 1.9.2 2.7.6v10.2c.4-.2.8-.5 1.2-.8v-8.8c1.7 1.2 2.8 3.1 2.8 5.3 0 3.7-3 6.5-6.7 6.5-.9 0-1.8-.2-2.6-.5v-3.2c.4.4 1 .6 1.8.6 1.3 0 2.7-.8 2.7-3.2 0-2.3-1.2-3.1-2.4-3.1-1 0-1.6.4-2.1.9 0-.7-.2-.9-.6-.9-.4 0-.5.2-.5.6v7.7c-1.8-1.1-3-3.1-3-5.4z"/></svg>
