<?xml version="1.0" encoding="UTF-8" standalone="no"?>
<svg
   xmlns:dc="http://purl.org/dc/elements/1.1/"
   xmlns:cc="http://creativecommons.org/ns#"
   xmlns:rdf="http://www.w3.org/1999/02/22-rdf-syntax-ns#"
   xmlns:svg="http://www.w3.org/2000/svg"
   xmlns="http://www.w3.org/2000/svg"
   viewBox="0 0 374.17319 170.0787"
   id="svg2"
   height="170.0787"
   width="374.17319"
   version="1.1">
  <metadata
     id="metadata14">
    <rdf:RDF>
      <cc:Work
         rdf:about="">
        <dc:format>image/svg+xml</dc:format>
        <dc:type
           rdf:resource="http://purl.org/dc/dcmitype/StillImage" />
      </cc:Work>
    </rdf:RDF>
  </metadata>
  <defs
     id="defs12" />
  <g
     id="g4">
    <path
       id="path6"
       style="fill:#005ba6;fill-rule:evenodd"
       d="m 17.0226,115.9274 9.72,0 c 0,1.872 0.36,3.024 1.008,3.528 0.504,0.36 1.152,0.576 1.872,0.648 0.792,0.072 3.168,0.072 7.272,0.144 4.248,0 6.768,-0.072 7.632,-0.072 0.864,-0.072 1.512,-0.216 2.016,-0.432 0.72,-0.36 1.152,-1.296 1.152,-2.808 0,-1.152 -0.288,-1.872 -0.792,-2.232 -0.576,-0.36 -1.584,-0.576 -3.24,-0.648 -1.224,0 -3.816,-0.072 -7.848,-0.288 -4.104,-0.216 -6.768,-0.36 -7.992,-0.36 -2.448,-0.144 -4.32,-0.36 -5.616,-0.792 -1.296,-0.432 -2.304,-1.152 -3.024,-2.088 -1.224,-1.584 -1.872,-4.248 -1.872,-7.992 0,-4.248 0.72,-7.2 2.16,-8.928 1.08,-1.368 2.736,-2.16 4.968,-2.592 2.232,-0.36 6.768,-0.504 13.68,-0.504 4.824,0 8.208,0.144 10.152,0.432 3.024,0.504 5.112,1.44 6.264,2.88 1.152,1.44 1.656,3.816 1.656,7.2 0,0.288 0,0.864 0,1.728 l -9.72,0 c -0.072,-1.008 -0.144,-1.728 -0.216,-2.16 -0.144,-0.36 -0.36,-0.648 -0.72,-0.864 -0.432,-0.288 -1.224,-0.504 -2.304,-0.576 -1.08,-0.072 -3.384,-0.144 -6.984,-0.144 -4.248,0 -6.84,0.144 -7.776,0.432 -0.936,0.36 -1.368,1.152 -1.368,2.52 0,1.296 0.432,2.088 1.368,2.376 0.792,0.288 4.32,0.504 10.656,0.72 5.328,0.144 8.856,0.36 10.656,0.648 1.8,0.216 3.24,0.72 4.32,1.368 1.224,0.792 2.088,1.944 2.52,3.384 0.504,1.44 0.792,3.456 0.792,6.12 0,3.528 -0.432,6.12 -1.296,7.848 -0.576,1.224 -1.44,2.16 -2.592,2.808 -1.152,0.576 -2.664,1.008 -4.752,1.224 -2.16,0.216 -6.192,0.36 -12.096,0.36 -4.968,0 -8.64,-0.144 -11.016,-0.432 -2.376,-0.288 -4.104,-0.864 -5.328,-1.584 -1.224,-0.792 -2.088,-1.872 -2.592,-3.168 -0.432,-1.296 -0.72,-3.312 -0.72,-5.976 l 0,-1.728 z m 45.864,-24.84 39.528,0 0,8.496 -24.12,19.728 24.84,-0.36 0,9.288 -40.752,0 0,-8.712 23.832,-19.512 -23.328,0.36 0,-9.288 z m 77.76,22.824 10.008,0 c 0.072,1.8 0.144,2.952 0.144,3.528 0,2.808 -0.432,5.112 -1.152,6.696 -0.864,1.8 -2.52,3.024 -4.896,3.672 -2.448,0.72 -6.624,1.008 -12.6,1.008 -6.336,0 -10.8,-0.144 -13.464,-0.432 -2.664,-0.216 -4.68,-0.792 -6.048,-1.584 -1.152,-0.648 -2.088,-1.656 -2.664,-2.808 -0.576,-1.224 -1.008,-2.88 -1.152,-4.968 -0.144,-1.656 -0.216,-4.752 -0.216,-9.144 0,-4.32 0.072,-7.416 0.216,-9.288 0.144,-1.944 0.432,-3.384 0.864,-4.464 0.864,-2.376 2.736,-3.888 5.544,-4.608 2.808,-0.648 8.424,-1.008 16.992,-1.008 4.248,0 7.344,0.072 9.216,0.288 1.944,0.216 3.528,0.648 4.608,1.224 1.512,0.792 2.592,2.016 3.168,3.6 0.648,1.584 0.936,3.888 0.936,6.912 0,0.144 0,0.792 0,1.872 l -10.08,0 c 0,-1.224 -0.072,-2.088 -0.216,-2.52 -0.072,-0.432 -0.216,-0.72 -0.504,-1.008 -0.36,-0.36 -1.368,-0.648 -2.952,-0.864 -1.512,-0.144 -3.888,-0.216 -7.056,-0.216 -3.168,0 -5.328,0.072 -6.552,0.216 -1.224,0.144 -2.088,0.432 -2.52,0.936 -0.648,0.504 -1.008,1.44 -1.296,2.736 -0.216,1.296 -0.36,3.312 -0.36,6.12 0,2.808 0.144,4.824 0.36,5.976 0.216,1.152 0.576,2.016 1.224,2.52 0.504,0.504 1.44,0.792 2.664,0.936 1.224,0.216 3.384,0.288 6.552,0.288 3.816,0 6.408,-0.072 7.704,-0.216 1.224,-0.144 2.088,-0.504 2.592,-1.008 0.576,-0.576 0.864,-2.088 0.936,-4.392 z m 15.624,-22.824 39.456,0 0,8.496 -24.048,19.728 24.768,-0.36 0,9.288 -40.752,0 0,-8.712 23.832,-19.512 -23.256,0.36 0,-9.288 z m 46.296,0 36.504,0 0,8.712 -26.64,0 0,5.4 25.272,0 0,8.136 -25.272,0 0,5.976 26.856,0 0,8.928 -36.72,0 0,-37.152 z m 74.016,22.824 10.008,0 c 0.072,1.8 0.144,2.952 0.144,3.528 0,2.808 -0.432,5.112 -1.152,6.696 -0.864,1.8 -2.52,3.024 -4.896,3.672 -2.448,0.72 -6.624,1.008 -12.6,1.008 -6.336,0 -10.8,-0.144 -13.464,-0.432 -2.664,-0.216 -4.68,-0.792 -5.976,-1.584 -1.224,-0.648 -2.16,-1.656 -2.736,-2.808 -0.576,-1.224 -1.008,-2.88 -1.152,-4.968 -0.144,-1.656 -0.216,-4.752 -0.216,-9.144 0,-4.32 0.072,-7.416 0.216,-9.288 0.144,-1.944 0.432,-3.384 0.864,-4.464 0.864,-2.376 2.736,-3.888 5.544,-4.608 2.808,-0.648 8.496,-1.008 16.992,-1.008 4.248,0 7.344,0.072 9.216,0.288 1.944,0.216 3.528,0.648 4.68,1.224 1.44,0.792 2.52,2.016 3.096,3.6 0.648,1.584 0.936,3.888 0.936,6.912 0,0.144 0,0.792 0,1.872 l -10.08,0 c 0,-1.224 -0.072,-2.088 -0.216,-2.52 -0.072,-0.432 -0.216,-0.72 -0.504,-1.008 -0.36,-0.36 -1.368,-0.648 -2.952,-0.864 -1.512,-0.144 -3.888,-0.216 -7.056,-0.216 -3.168,0 -5.328,0.072 -6.552,0.216 -1.224,0.144 -2.016,0.432 -2.52,0.936 -0.648,0.504 -1.008,1.44 -1.296,2.736 -0.216,1.296 -0.36,3.312 -0.36,6.12 0,2.808 0.144,4.824 0.36,5.976 0.216,1.152 0.576,2.016 1.224,2.52 0.504,0.504 1.44,0.792 2.664,0.936 1.224,0.216 3.384,0.288 6.552,0.288 3.816,0 6.408,-0.072 7.704,-0.216 1.224,-0.144 2.088,-0.504 2.592,-1.008 0.576,-0.576 0.864,-2.088 0.936,-4.392 z m 34.344,-22.824 17.64,0 17.28,27.72 1.008,0 -0.216,-27.72 10.224,0 0,37.152 -17.496,0 -17.352,-27.72 -1.08,0 0.216,27.72 -10.224,0 0,-37.152 z m 23.544,-40.248 c -5.328,0 -8.928,0.144 -10.008,0.504 -1.296,0.36 -2.088,1.152 -2.448,2.376 -0.432,1.296 -0.576,3.816 -0.576,7.56 0,2.304 0.072,3.888 0.288,4.968 0.432,1.872 1.656,2.952 3.672,3.24 1.512,0.216 4.824,0.288 9.144,0.288 4.032,0 6.768,-0.072 8.064,-0.216 1.368,-0.216 2.304,-0.576 2.952,-1.08 0.576,-0.504 1.008,-1.296 1.224,-2.304 0.216,-0.936 0.288,-2.592 0.288,-4.824 0,-2.664 -0.072,-4.68 -0.216,-5.904 -0.144,-1.224 -0.432,-2.16 -0.864,-2.808 -0.576,-0.792 -1.44,-1.296 -2.664,-1.512 -1.224,-0.216 -4.176,-0.288 -8.856,-0.288 z m 0,-9.648 c 7.128,0 12.024,0.144 14.688,0.576 3.888,0.576 6.192,2.664 7.056,6.192 0.648,2.448 0.936,6.552 0.936,12.312 0,5.832 -0.288,9.936 -0.936,12.384 -0.864,3.528 -3.168,5.616 -7.056,6.192 -2.664,0.432 -7.56,0.576 -14.616,0.576 -7.128,0 -12.528,-0.144 -15.192,-0.576 -3.888,-0.576 -6.192,-2.664 -7.056,-6.192 -0.648,-2.448 -0.936,-6.624 -0.936,-12.6 0,-5.616 0.288,-9.72 0.936,-12.096 0.864,-3.528 3.168,-5.616 7.056,-6.192 2.664,-0.432 7.992,-0.576 15.12,-0.576 z m -83.016,28.224 13.968,0 c 2.592,0 4.536,-0.072 5.688,-0.288 1.224,-0.216 2.088,-0.504 2.592,-1.008 0.576,-0.504 0.936,-1.368 1.152,-2.448 0.216,-1.152 0.36,-2.88 0.36,-5.184 0,-2.304 -0.072,-4.032 -0.288,-5.256 -0.216,-1.152 -0.504,-2.016 -1.008,-2.664 -0.576,-0.648 -1.368,-1.08 -2.376,-1.296 -1.08,-0.144 -3.096,-0.288 -6.192,-0.288 l -13.896,0 0,18.432 z m -9.864,9.504 0,-37.224 23.76,0 c 4.248,0 6.984,0.072 8.28,0.144 1.296,0.072 2.664,0.288 4.104,0.576 3.312,0.792 5.472,2.88 6.408,6.336 0.432,1.296 0.648,2.736 0.792,4.176 0.144,1.512 0.216,3.816 0.216,6.84 0,3.312 -0.144,5.832 -0.288,7.56 -0.144,1.656 -0.432,3.24 -0.864,4.608 -0.936,3.312 -2.952,5.328 -6.048,6.048 -1.44,0.36 -2.952,0.648 -4.608,0.72 -1.584,0.144 -4.248,0.216 -7.92,0.216 l -23.832,0 z m -22.536,-14.472 -6.408,-14.04 -2.016,0 -6.336,14.04 14.76,0 z m 6.336,14.472 -2.88,-6.336 -21.744,0 -2.88,6.336 -11.376,0 17.424,-37.224 15.624,0 17.208,37.224 -11.376,0 z m -73.296,-18.792 14.112,0 c 2.448,0 3.96,-0.072 4.392,-0.144 0.504,0 0.936,-0.144 1.224,-0.432 0.432,-0.288 0.792,-0.72 0.936,-1.368 0.144,-0.576 0.288,-1.512 0.288,-2.736 0,-1.224 -0.144,-2.088 -0.36,-2.736 -0.144,-0.576 -0.504,-1.008 -1.008,-1.296 -0.36,-0.216 -0.792,-0.288 -1.296,-0.288 -0.432,-0.072 -1.872,-0.072 -4.176,-0.144 l -14.112,0 0,9.144 z m -10.08,18.792 0,-37.224 24.264,0 c 5.76,0.072 9.144,0.144 10.296,0.216 1.08,0.144 2.232,0.576 3.24,1.296 1.224,0.864 2.088,2.016 2.592,3.528 0.432,1.512 0.72,3.816 0.72,7.056 0,2.736 -0.144,4.68 -0.504,5.976 -0.288,1.224 -0.792,2.304 -1.656,3.024 -0.864,0.792 -2.232,1.368 -4.032,1.728 2.16,0.144 3.672,0.864 4.608,2.016 0.504,0.72 0.864,1.584 1.008,2.592 0.144,1.008 0.216,3.096 0.216,6.336 l 0,3.456 -9.936,0 0,-2.016 c 0,-2.088 -0.072,-3.528 -0.216,-4.392 -0.144,-0.936 -0.36,-1.584 -0.72,-2.088 -0.36,-0.432 -0.936,-0.648 -1.584,-0.792 -0.648,-0.144 -2.016,-0.216 -4.104,-0.216 l -14.112,0 0,9.504 -10.08,0 z m 149.616,0 c 0.432,0.288 0.936,0.504 1.512,0.576 0.936,0.144 2.736,0.216 5.184,0.216 2.376,0 4.032,-0.072 4.968,-0.216 0.576,-0.072 1.08,-0.288 1.512,-0.576 0,-1.368 0,-2.808 0,-4.176 -0.432,-0.288 -0.936,-0.504 -1.512,-0.648 -0.936,-0.072 -2.592,-0.144 -4.968,-0.144 -2.448,0 -4.248,0.072 -5.184,0.144 -0.576,0.144 -1.08,0.36 -1.512,0.648 0,1.368 0,2.808 0,4.176 z m 0,-8.28 c 0.432,0.36 0.936,0.576 1.512,0.648 0.936,0.144 2.736,0.216 5.184,0.216 2.376,0 4.032,-0.072 4.968,-0.216 0.576,-0.072 1.08,-0.288 1.512,-0.648 0,-1.368 0,-2.736 0,-4.104 -0.432,-0.36 -0.936,-0.576 -1.512,-0.648 -0.936,-0.144 -2.592,-0.216 -4.968,-0.216 -2.448,0 -4.248,0.072 -5.184,0.216 -0.576,0.072 -1.08,0.288 -1.512,0.648 0,1.368 0,2.736 0,4.104 z m 0,-8.208 c 0.432,0.288 0.936,0.504 1.512,0.648 0.936,0.144 2.736,0.144 5.184,0.144 2.376,0 4.032,0 4.968,-0.144 0.576,-0.144 1.08,-0.36 1.512,-0.648 0,-1.368 0,-2.736 0,-4.176 -0.432,-0.288 -0.936,-0.504 -1.512,-0.576 -0.936,-0.144 -2.592,-0.216 -4.968,-0.216 -2.448,0 -4.248,0.072 -5.184,0.216 -0.576,0.072 -1.08,0.288 -1.512,0.576 0,1.44 0,2.808 0,4.176 z m 0,-8.208 c 0.432,0.288 0.936,0.504 1.512,0.576 0.936,0.144 2.736,0.216 5.184,0.216 2.376,0 4.032,-0.072 4.968,-0.216 0.576,-0.072 1.08,-0.288 1.512,-0.648 0,-1.368 0,-2.736 0,-4.104 -0.432,-0.288 -0.936,-0.504 -1.512,-0.648 -0.936,-0.144 -2.592,-0.216 -4.968,-0.216 -2.448,0 -4.248,0.072 -5.184,0.216 -0.576,0.144 -1.08,0.36 -1.512,0.648 0,1.368 0,2.736 0,4.176 z m 0,-8.28 c 0.432,0.36 0.936,0.576 1.512,0.648 0.936,0.144 2.736,0.216 5.184,0.216 2.376,0 4.032,-0.072 4.968,-0.216 0.576,-0.072 1.08,-0.288 1.512,-0.648 0,-1.368 0,-2.736 0,-4.104 -0.432,-0.36 -0.936,-0.576 -1.512,-0.648 -0.936,-0.144 -2.592,-0.216 -4.968,-0.216 -2.448,0 -4.248,0.072 -5.184,0.216 -0.576,0.072 -1.08,0.288 -1.512,0.648 0,1.368 0,2.736 0,4.104 z m 0,-8.208 c 0.432,0.288 0.936,0.504 1.512,0.576 0.936,0.144 2.736,0.216 5.184,0.216 2.376,0 4.032,-0.072 4.968,-0.216 0.576,-0.072 1.08,-0.288 1.512,-0.576 0,-1.368 0,-2.808 0,-4.176 -0.432,-0.288 -0.936,-0.504 -1.512,-0.576 -0.936,-0.144 -2.592,-0.216 -4.968,-0.216 -2.448,0 -4.248,0.072 -5.184,0.216 -0.576,0.072 -1.08,0.288 -1.512,0.576 0,1.368 0,2.808 0,4.176 z m 0,-8.28 c 0.432,0.36 0.936,0.576 1.512,0.648 0.936,0.144 2.736,0.216 5.184,0.216 2.376,0 4.032,-0.072 4.968,-0.216 0.576,-0.072 1.08,-0.288 1.512,-0.648 0,-1.368 0,-2.736 0,-4.104 -0.432,-0.36 -0.936,-0.576 -1.512,-0.648 -0.936,-0.144 -2.592,-0.216 -4.968,-0.216 -2.448,0 -4.248,0.072 -5.184,0.216 -0.576,0.072 -1.08,0.288 -1.512,0.648 0,1.368 0,2.736 0,4.104 z m 0,-8.208 c 0.432,0.288 0.936,0.504 1.512,0.648 0.936,0.144 2.736,0.216 5.184,0.216 2.376,0 4.032,-0.072 4.968,-0.216 0.576,-0.144 1.08,-0.36 1.512,-0.648 0,-1.368 0,-2.736 0,-4.176 -0.432,-0.288 -0.936,-0.504 -1.512,-0.576 -0.936,-0.144 -2.592,-0.216 -4.968,-0.216 -2.448,0 -4.248,0.072 -5.184,0.216 -0.576,0.072 -1.08,0.288 -1.512,0.576 0,1.44 0,2.808 0,4.176 z m 0,131.688 c 0.432,0.36 0.936,0.576 1.512,0.648 0.936,0.144 2.736,0.216 5.184,0.216 2.376,0 4.032,-0.072 4.968,-0.216 0.576,-0.072 1.08,-0.288 1.512,-0.648 0,-1.368 0,-2.736 0,-4.104 -0.432,-0.36 -0.936,-0.576 -1.512,-0.648 -0.936,-0.144 -2.592,-0.216 -4.968,-0.216 -2.448,0 -4.248,0.072 -5.184,0.216 -0.576,0.072 -1.08,0.288 -1.512,0.648 0,1.368 0,2.736 0,4.104 z m 0,-8.208 c 0.432,0.288 0.936,0.504 1.512,0.648 0.936,0.072 2.736,0.144 5.184,0.144 2.376,0 4.032,-0.072 4.968,-0.144 0.576,-0.144 1.08,-0.36 1.512,-0.648 0,-1.368 0,-2.808 0,-4.176 -0.432,-0.288 -0.936,-0.504 -1.512,-0.576 -0.936,-0.144 -2.592,-0.216 -4.968,-0.216 -2.448,0 -4.248,0.072 -5.184,0.216 -0.576,0.072 -1.08,0.288 -1.512,0.576 0,1.368 0,2.808 0,4.176 z m 0,-8.28 c 0.432,0.36 0.936,0.576 1.512,0.648 0.936,0.144 2.736,0.216 5.184,0.216 2.376,0 4.032,-0.072 4.968,-0.216 0.576,-0.072 1.08,-0.288 1.512,-0.648 0,-1.368 0,-2.736 0,-4.104 -0.432,-0.36 -0.936,-0.504 -1.512,-0.648 -0.936,-0.144 -2.592,-0.216 -4.968,-0.216 -2.448,0 -4.248,0.072 -5.184,0.216 -0.576,0.144 -1.08,0.288 -1.512,0.648 0,1.368 0,2.736 0,4.104 z m 0,-8.208 c 0.432,0.36 0.936,0.504 1.512,0.648 0.936,0.144 2.736,0.216 5.184,0.216 2.376,0 4.032,-0.072 4.968,-0.216 0.576,-0.144 1.08,-0.288 1.512,-0.648 0,-1.368 0,-2.736 0,-4.104 -0.432,-0.36 -0.936,-0.576 -1.512,-0.648 -0.936,-0.144 -2.592,-0.216 -4.968,-0.216 -2.448,0 -4.248,0.072 -5.184,0.216 -0.576,0.072 -1.08,0.288 -1.512,0.576 0,1.44 0,2.808 0,4.176 z m 0,-8.208 c 0.432,0.288 0.936,0.504 1.512,0.576 0.936,0.144 2.736,0.216 5.184,0.216 2.376,0 4.032,-0.072 4.968,-0.216 0.576,-0.072 1.08,-0.288 1.512,-0.576 0,-1.44 0,-2.808 0,-4.176 -0.432,-0.288 -0.936,-0.504 -1.512,-0.648 -0.936,-0.072 -2.592,-0.144 -4.968,-0.144 -2.448,0 -4.248,0.072 -5.184,0.144 -0.576,0.144 -1.08,0.36 -1.512,0.648 0,1.368 0,2.808 0,4.176 z m 0,-8.28 c 0.432,0.36 0.936,0.576 1.512,0.648 0.936,0.144 2.736,0.216 5.184,0.216 2.376,0 4.032,-0.072 4.968,-0.216 0.576,-0.072 1.08,-0.288 1.512,-0.648 0,-1.368 0,-2.736 0,-4.104 -0.432,-0.36 -0.936,-0.576 -1.512,-0.648 -0.936,-0.144 -2.592,-0.216 -4.968,-0.216 -2.448,0 -4.248,0.072 -5.184,0.216 -0.576,0.072 -1.08,0.288 -1.512,0.648 0,1.368 0,2.736 0,4.104 z m 0,-8.208 c 0.432,0.288 0.936,0.504 1.512,0.648 0.936,0.144 2.736,0.144 5.184,0.144 2.376,0 4.032,0 4.968,-0.144 0.576,-0.144 1.08,-0.36 1.512,-0.648 0,-1.368 0,-2.736 0,-4.176 -0.432,-0.288 -0.936,-0.504 -1.512,-0.576 -0.936,-0.144 -2.592,-0.216 -4.968,-0.216 -2.448,0 -4.248,0.072 -5.184,0.216 -0.576,0.072 -1.08,0.288 -1.512,0.576 0,1.44 0,2.808 0,4.176 z m 0,-8.208 c 0.432,0.288 0.936,0.504 1.512,0.576 0.936,0.144 2.736,0.216 5.184,0.216 2.376,0 4.032,-0.072 4.968,-0.216 0.576,-0.072 1.08,-0.288 1.512,-0.648 0,-1.368 0,-2.736 0,-4.104 -0.432,-0.288 -0.936,-0.504 -1.512,-0.648 -0.936,-0.144 -2.592,-0.216 -4.968,-0.216 -2.448,0 -4.248,0.072 -5.184,0.216 -0.576,0.144 -1.08,0.288 -1.512,0.648 0,1.368 0,2.736 0,4.176 z" />
    <path
       id="path8"
       style="fill:none"
       d="M 0,170.0787 0,0 l 374.1732,0 0,170.0787 -374.1732,0 z" />
  </g>
</svg>
